<?xml version="1.0" encoding="UTF-8" standalone="no"?>
<!-- Created with Inkscape (http://www.inkscape.org/) -->

<svg
   width="100mm"
   height="100mm"
   viewBox="0 0 100 100"
   version="1.1"
   id="svg5"
   xml:space="preserve"
   inkscape:version="1.2.2 (732a01da63, 2022-12-09)"
   sodipodi:docname="scooter.svg"
   xmlns:inkscape="http://www.inkscape.org/namespaces/inkscape"
   xmlns:sodipodi="http://sodipodi.sourceforge.net/DTD/sodipodi-0.dtd"
   xmlns="http://www.w3.org/2000/svg"
   xmlns:svg="http://www.w3.org/2000/svg"><sodipodi:namedview
     id="namedview7"
     pagecolor="#ffffff"
     bordercolor="#000000"
     borderopacity="0.25"
     inkscape:showpageshadow="2"
     inkscape:pageopacity="0.0"
     inkscape:pagecheckerboard="0"
     inkscape:deskcolor="#d1d1d1"
     inkscape:document-units="mm"
     showgrid="false"
     inkscape:zoom="2.1165587"
     inkscape:cx="176.70193"
     inkscape:cy="202.21504"
     inkscape:window-width="1350"
     inkscape:window-height="1000"
     inkscape:window-x="3977"
     inkscape:window-y="11"
     inkscape:window-maximized="0"
     inkscape:current-layer="layer1" /><defs
     id="defs2" /><g
     inkscape:label="Layer 1"
     inkscape:groupmode="layer"
     id="layer1"><g
       id="g3742"><path
         style="fill:#000000;stroke-width:0.264583"
         d="m 58.786067,90.640191 c -0.0174,-1.82796 -0.10551,-3.3975 -0.19587,-3.48786 -0.0904,-0.0904 -5.60951,-0.20409 -12.26479,-0.25274 -10.73456,-0.0785 -13.48632,-0.21599 -15.45759,-0.7725 -0.42829,-0.12091 -0.57719,-0.4703 -1.24455,-2.92032 -0.23136,-0.84937 -0.47489,-1.16084 -1.06975,-1.36821 -1.0164,-0.35432 -0.92072,-1.15056 0.17817,-1.4827 l 0.81541,-0.24646 -1.86445,-2.26709 c -1.02544,-1.24689 -2.14623,-2.60411 -2.49064,-3.01605 l -0.62618,-0.74897 -1.00368,0.47952 -1.00369,0.47951 1.20302,0.95183 c 2.06834,1.63647 3.96137,5.06255 3.97485,7.19385 0.007,1.09849 -0.50797,1.32714 -1.32455,0.58815 -0.41304,-0.3738 -0.45703,-0.28741 -0.58777,1.15449 -0.27008,2.97846 -1.89002,5.56442 -4.26455,6.80765 -0.78786,0.4125 -1.37984,0.88715 -1.315514,1.05478 0.07656,0.19952 -0.445828,0.36361 -1.51253,0.4751 -2.005807,0.20965 -4.48255,-0.0525 -4.48255,-0.47453 0,-0.17024 -0.45279,-0.5093 -1.006201,-0.75347 -3.378681,-1.49067 -5.353291,-5.40436 -4.747903,-9.41038 0.348576,-2.30664 1.828753,-4.58674 3.703222,-5.70454 l 1.000342,-0.59653 -0.976574,-0.0367 c -1.231075,-0.0463 -1.600465,-0.55194 -0.855618,-1.17125 0.61246,-0.50924 3.663353,-1.52391 4.582074,-1.52391 0.475044,0 0.666261,-0.26161 1.015307,-1.38906 0.760113,-2.45523 1.572165,-7.40298 1.399849,-8.52913 -0.344479,-2.25127 -0.256622,-4.34086 0.29495,-7.01514 0.730448,-3.54157 0.999643,-4.23333 1.647373,-4.23333 0.282516,0 0.553353,0.11764 0.601863,0.26143 0.0485,0.14378 0.8971,-3.99364 1.88578,-9.194274 0.98867,-5.20064 2.26725,-11.89649 2.84129,-14.87966 0.73603,-3.825 1.03852,-6.08695 1.0261,-7.67292 -0.0136,-1.73563 0.13806,-2.72539 0.66443,-4.33627 0.37513,-1.14802 0.68205,-2.35235 0.68205,-2.676297 0,-1.028675 -0.93695,-1.915601 -2.18094,-2.064513 -1.41688,-0.169606 -3.79704,-0.781453 -4.059,-1.04341 -0.10904,-0.109043 -0.74991,-0.198259 -1.424159,-0.198259 -0.674245,0 -1.339011,-0.110574 -1.477256,-0.245719 -0.138245,-0.135146 -0.668073,-0.283974 -1.177396,-0.33073 -0.721315,-0.06622 -0.926041,-0.2019947 -0.926041,-0.6141757 0,-0.465624 0.220485,-0.545053 1.836145,-0.661458 l 1.836144,-0.132292 0.01593,-1.058333 0.01593,-1.058334 1.322913,-0.06034 c 0.7276,-0.03319 1.85614,-0.171002 2.50786,-0.306259 0.89325,-0.185384 1.36221,-0.154248 1.90509,0.126484 0.39608,0.204822 0.99395,0.374227 1.3286,0.376456 1.02804,0.0068 1.78795,1.02467 0.80689,1.080747 -0.25466,0.01456 0.60322,0.253311 1.9064,0.530567 1.30318,0.277256 2.45663,0.592768 2.56322,0.701139 0.1066,0.10837 0.0199,1.0900047 -0.19271,2.1814117 -0.21259,1.091406 -0.49088,2.639218 -0.61843,3.439585 -0.12755,0.80037 -2.02865,10.80162 -4.22467,22.225 -2.19601,11.42339 -3.9939,21.138294 -3.99531,21.588684 -0.002,0.48544 0.21291,1.01389 0.5266,1.29778 0.73623,0.66628 0.66084,1.31131 -0.23741,2.03134 -0.52728,0.42267 -0.81747,0.94488 -0.9296,1.67283 -0.16106,1.04567 -0.11985,1.11054 3.44586,5.42395 1.98488,2.4011 4.8525,5.88368 6.37248,7.73907 2.72988,3.33225 2.77711,3.37356 3.86916,3.38332 0.60806,0.005 2.05805,0.0585 3.22222,0.1179 1.16417,0.0594 7.65307,0.17724 14.41979,0.26186 6.76672,0.0846 12.81686,0.22483 13.44476,0.31159 l 1.14163,0.15774 2.68219,-2.67844 c 1.65055,-1.64822 2.50898,-2.67845 2.23183,-2.67845 -0.68482,0 -0.5376,-0.66908 0.22352,-1.01586 0.80634,-0.3674 1.44276,-0.39735 1.44276,-0.0679 0,0.13154 0.62034,0.003 1.37854,-0.28465 1.84318,-0.70035 4.57418,-0.90488 6.53272,-0.48926 1.78137,0.37804 3.39097,1.23566 5.2245,2.7837 2.33009,1.96729 2.73631,2.49352 2.77893,3.59986 0.0218,0.56669 0.0516,1.17918 0.0661,1.36108 0.0388,0.48445 -1.39277,0.31301 -2.00382,-0.23999 -0.498,-0.45068 -0.50304,-0.44267 -0.20071,0.3188 0.53128,1.33809 0.40138,4.30025 -0.26386,6.01685 -0.66206,1.70841 -2.53132,3.78233 -4.06506,4.51014 -0.51599,0.24485 -0.98729,0.59257 -1.04734,0.77271 -0.0722,0.21654 -0.88806,0.35951 -2.40777,0.42192 -2.38176,0.0978 -3.73186,-0.0799 -3.49676,-0.46032 0.0747,-0.12094 -0.36687,-0.44478 -0.98137,-0.71965 -1.45248,-0.64969 -3.10603,-2.30913 -3.86671,-3.88049 l -0.60505,-1.24987 -3.879,0.002 c -2.13345,7.9e-4 -4.86582,0.0784 -6.07194,0.17229 l -2.19293,0.1707 -0.01,1.08448 c -0.005,0.59647 -0.0692,2.12628 -0.14161,3.39959 -0.13116,2.30674 -0.13421,2.3151 -0.84655,2.3151 h -0.71492 l -0.0316,-3.32357 z m -38.811737,1.09775 c 3.206917,-1.49319 4.887267,-3.9734 5.034827,-7.43146 0.062,-1.45312 0.0128,-1.95078 -0.15702,-1.5875 -0.13603,0.29104 -0.25732,0.4101 -0.26954,0.26458 -0.0122,-0.14552 -0.0904,-0.56224 -0.17384,-0.92604 -0.1189,-0.5187 -0.0904,-0.5758 0.13185,-0.26458 0.35333,0.49465 0.37787,0.0138 0.027,-0.52917 -0.22799,-0.35278 -0.25704,-0.35278 -0.26153,0 -0.003,0.21828 -0.24271,0.007 -0.53321,-0.46941 -0.64729,-1.06166 -0.66885,-1.29572 -0.0755,-0.81976 0.29991,0.24057 0.24903,0.0727 -0.15074,-0.49737 -0.81106,-1.1566 -2.32015,-2.2766 -2.81278,-2.08756 -0.478682,0.18368 -0.534369,-0.38319 -0.08208,-0.83548 0.59212,-0.59212 1.29787,-0.3211 2.75667,1.05857 1.00037,0.94611 1.75403,1.99779 2.41204,3.36585 1.09006,2.26632 1.43584,2.18512 0.56835,-0.13345 -0.43867,-1.17247 -1.00679,-1.97043 -2.33348,-3.27756 -0.96451,-0.95029 -2.05985,-1.92858 -2.43411,-2.17399 -0.64748,-0.42458 -0.67731,-0.54859 -0.61548,-2.55861 0.11824,-3.84363 0.49648,-3.71953 4.92454,1.61575 4.94934,5.96336 4.8895,5.87472 4.48106,6.6379 -0.28028,0.52371 -0.25182,0.92566 0.17341,2.44899 0.48738,1.74602 0.55219,1.83557 1.54526,2.13521 1.11363,0.33601 8.11215,0.47463 7.62039,0.15093 -0.16242,-0.10691 -0.35079,-0.87886 -0.41861,-1.71543 -0.0678,-0.83658 -0.179,-1.57674 -0.24706,-1.6448 -0.0681,-0.0681 -1.33925,-0.1408 -2.82487,-0.16164 -1.48561,-0.0209 -2.76662,-0.14389 -2.84668,-0.27344 -0.0801,-0.12954 0.30794,-0.23727 0.86223,-0.23938 0.55429,-0.002 1.52905,-0.18538 2.16614,-0.40724 1.0402,-0.36225 1.20423,-0.36186 1.60833,0.004 0.2475,0.22398 0.64479,0.40723 0.88288,0.40723 0.41264,0 1.02682,0.80312 0.9529,1.24606 -0.0192,0.11503 -0.009,0.74493 0.0228,1.39978 0.0489,1.00986 0.0899,1.0902 0.26954,0.52916 0.19756,-0.61688 0.21596,-0.59905 0.27304,0.26459 l 0.0612,0.92604 0.19492,-0.92603 c 0.11454,-0.54417 0.21696,-0.70783 0.24835,-0.39687 l 0.0534,0.52916 0.22739,-0.52916 c 0.18908,-0.44002 0.23579,-0.37317 0.27729,0.39687 0.0496,0.92108 0.0508,0.9219 0.21703,0.15412 0.1888,-0.87196 0.81874,-1.24888 0.84719,-0.5069 0.0149,0.38756 0.0547,0.40529 0.19844,0.0882 0.0989,-0.21828 0.37197,-0.42814 0.6068,-0.46634 0.32723,-0.0532 0.39631,0.0909 0.29574,0.61702 -0.0981,0.51313 -0.25596,0.65387 -0.62514,0.55732 -0.27165,-0.071 -0.56059,-0.0213 -0.64208,0.11059 -0.15236,0.24652 1.73563,0.30558 11.12785,0.34809 l 5.29167,0.0239 -0.063,-0.59531 c -0.0401,-0.37892 0.0801,-0.59531 0.33073,-0.59531 0.21657,0 0.39376,-0.1786 0.39376,-0.39688 0,-0.44931 0.41431,-0.53217 0.66145,-0.13229 0.0899,0.14552 0.008,0.2682 -0.18282,0.27263 -0.21255,0.005 -0.16649,0.11277 0.11921,0.27915 0.28792,0.16765 0.42527,0.49269 0.35997,0.85185 -0.10507,0.57791 -0.0912,0.57988 2.84174,0.4045 4.06267,-0.24294 9.50035,-0.25295 9.85793,-0.0181 0.16282,0.10691 0.60006,0.79725 0.97164,1.53409 1.7569,3.48389 6.56875,5.64099 9.11723,4.08715 0.47294,-0.28836 0.8599,-0.61533 0.8599,-0.72661 0,-0.11128 -0.38696,-0.19692 -0.8599,-0.1903 -0.49144,0.007 -0.83447,0.13983 -0.80056,0.31031 0.0415,0.20858 -0.18192,0.22909 -0.74294,0.0682 -0.44125,-0.12655 -1.19225,-0.18017 -1.66888,-0.11914 -0.63698,0.0815 -0.86661,0.008 -0.86661,-0.27866 0,-0.21469 0.24746,-0.39482 0.55121,-0.40122 0.34647,-0.007 0.16945,-0.14768 -0.47656,-0.37793 -0.56528,-0.20147 -1.4586,-0.787 -1.98516,-1.30117 -0.71234,-0.69559 -1.05875,-0.87076 -1.35347,-0.68445 -0.51549,0.32588 -1.05755,0.32702 -1.05755,0.002 0,-0.14095 0.16991,-0.19108 0.37757,-0.11139 0.28211,0.10826 0.34064,-0.0109 0.23152,-0.47132 -0.14442,-0.60931 -0.141,-0.61028 0.30548,-0.0871 0.3776,0.44251 0.4277,0.45334 0.30596,0.0662 -0.0801,-0.25466 -0.1125,-0.46302 -0.0721,-0.46302 0.0404,0 0.66836,0.57335 1.39538,1.2741 2.82859,2.7264 6.61378,2.36081 8.76709,-0.84676 0.74807,-1.11432 0.85989,-1.50203 0.85989,-2.98133 0,-2.64774 -0.97437,-4.21021 -3.09132,-4.95711 -1.03206,-0.36414 -1.07465,-0.35825 -0.94673,0.1309 0.10094,0.38602 0.21867,0.44186 0.47791,0.22671 0.48363,-0.40137 2.05526,1.17022 2.4912,2.49114 0.5376,1.62893 0.24152,3.6964 -0.69646,4.86339 -1.07875,1.34212 -2.2724,1.88754 -4.16448,1.90292 -1.19275,0.01 -1.82343,-0.13918 -2.65553,-0.62683 -1.05883,-0.62051 -1.9902,-1.83763 -1.65937,-2.16846 0.0896,-0.0896 1.40626,-0.14477 2.92584,-0.12252 2.22504,0.0326 2.84579,-0.0425 3.18882,-0.3855 0.54551,-0.5455 0.55023,-2.19354 0.008,-2.7927 -0.32883,-0.36336 -0.35506,-0.57938 -0.12298,-1.01302 0.25526,-0.47696 0.22037,-0.55118 -0.25911,-0.55118 -0.30475,0 -0.4989,0.0893 -0.43145,0.19844 0.0675,0.10914 -0.16364,0.19843 -0.51355,0.19843 -0.6957,0 -0.7703,-0.18109 -0.37717,-0.91565 0.28912,-0.54023 -0.0407,-0.94638 -0.89856,-1.1064 -0.69299,-0.12926 -0.86259,-0.75607 -0.20457,-0.75607 0.2876,0 0.59144,-0.1786 0.6752,-0.39688 0.19188,-0.50001 0.20915,-0.50196 -1.24171,0.13983 -1.25226,0.55393 -1.80457,1.0508 -1.16804,1.0508 0.51283,0 1.71947,1.36213 1.70707,1.92705 -0.007,0.3247 -0.0956,0.38658 -0.28376,0.19843 -0.15037,-0.15025 -0.52344,-0.27328 -0.82903,-0.27328 -0.30559,0 -0.6781,-0.12248 -0.8278,-0.27217 -0.1865,-0.18651 -0.49905,-0.0937 -0.99301,0.29484 -0.49487,0.38926 -0.94453,0.52247 -1.43439,0.42491 -0.41291,-0.0822 -0.92994,0.0165 -1.22714,0.23432 -0.28247,0.20704 -0.79699,0.37643 -1.14338,0.37643 -0.55927,0 -0.58543,-0.0443 -0.23367,-0.39611 0.21786,-0.21787 0.55379,-0.35644 0.7465,-0.30795 0.19272,0.0485 0.26109,0.0382 0.15195,-0.0228 -0.39615,-0.22154 -0.18646,-0.57602 0.26459,-0.44727 0.25466,0.0727 0.19261,-0.01 -0.13788,-0.18352 -0.50829,-0.26703 -0.65756,-0.23821 -0.96849,0.18702 -0.31324,0.42837 -0.65476,0.49171 -2.30952,0.42832 -1.47705,-0.0566 -1.84692,-0.004 -1.54505,0.22089 0.29303,0.21801 -2.75319,0.25373 -11.64167,0.13651 -6.6212,-0.0873 -12.87198,-0.19999 -13.89062,-0.25039 -1.01865,-0.0504 -1.43537,-0.043 -0.92604,0.0165 1.50617,0.1759 1.75144,0.31041 1.30374,0.71495 -0.50461,0.45597 -3.15583,0.26112 -3.15583,-0.23193 0,-0.19211 0.14883,-0.40935 0.33073,-0.48274 0.1819,-0.0734 0.0628,-0.14285 -0.26458,-0.15434 -0.32742,-0.0115 -0.59505,-0.11019 -0.59473,-0.21933 2.7e-4,-0.10914 1.21914,-0.19844 2.70848,-0.19844 2.46449,0 2.71672,-0.0459 2.80608,-0.51045 0.0919,-0.47796 0.0699,-0.48217 -0.34613,-0.0661 -0.54157,0.54157 -0.84269,0.56126 -1.12097,0.0733 -0.16098,-0.28227 -1.07575,-0.39301 -3.82456,-0.46302 -1.98714,-0.0506 -3.55565,5.3e-4 -3.48559,0.11375 0.12784,0.20649 -1.40792,0.0149 -1.79419,-0.22382 -0.11332,-0.07 -1.79022,-2.0588 -3.72643,-4.41948 -1.93622,-2.36068 -3.71965,-4.53062 -3.96318,-4.8221 -2.49442,-2.98549 -5.51034,-6.84387 -5.51034,-7.04958 0,-0.93145 0.6927,-2.69872 1.22054,-3.11392 l 0.6251,-0.4917 -1.17228,-0.29518 c -1.48368,-0.3736 -1.38035,-0.39096 -1.55074,0.2606 -0.18831,0.7201 -0.730571,0.39232 -0.61325,-0.37068 0.0513,-0.3334 0.28044,-0.58297 0.53655,-0.58429 0.24589,-0.001 0.54783,-0.16536 0.67099,-0.36463 0.12316,-0.19927 0.35824,-0.2793 0.5224,-0.17784 0.16417,0.10146 0.22999,0.2953 0.14626,0.43077 -0.0837,0.13546 0.0376,0.2463 0.26958,0.2463 0.32992,0 0.36416,-0.10769 0.15721,-0.49438 -0.14552,-0.27191 -0.18939,-0.56956 -0.0975,-0.66146 0.0919,-0.0919 -0.10547,-0.16708 -0.43858,-0.16708 -0.44629,0 -0.5375,-0.087 -0.34662,-0.33072 0.44603,-0.56948 0.91679,-3.59083 0.6373,-4.09025 -0.21464,-0.38354 -0.25159,-0.35327 -0.24201,0.19822 0.0155,0.89272 -0.54815,3.49345 -0.81497,3.76027 -0.11966,0.11966 -0.52539,0.10053 -0.90161,-0.0425 -0.790332,-0.30048 -1.445232,0.23943 -1.303709,1.07481 0.05114,0.30189 -0.07521,0.48852 -0.330745,0.48852 -0.317486,0 -0.412564,0.29183 -0.409456,1.25677 0.0047,1.4689 0.364689,2.29569 0.602891,1.38481 0.08386,-0.32069 0.276947,-0.50044 0.433583,-0.40363 0.427373,0.26413 0.338055,1.20163 -0.114483,1.20163 -0.218281,0 -0.396875,0.17859 -0.396875,0.39688 0,0.21828 0.224608,0.39687 0.499126,0.39687 0.388715,0 0.53862,-0.26337 0.67767,-1.19062 0.0982,-0.65485 0.306708,-1.19063 0.463348,-1.19063 0.19472,0 0.21825,0.48119 0.0744,1.52136 -0.11573,0.83674 -0.22142,1.93807 -0.23486,2.44739 -0.0134,0.50932 -0.173283,1.02126 -0.355185,1.13763 -0.181901,0.11637 -0.330729,0.51936 -0.330729,0.89553 0,0.88971 -0.586994,4.14561 -0.778266,4.31684 -0.08128,0.0728 -0.432229,0.72761 -0.779894,1.45521 -0.347668,0.7276 -0.681868,1.18351 -0.742675,1.01313 -0.0608,-0.17039 0.193884,-0.91057 0.565976,-1.64485 0.372088,-0.73429 0.676526,-1.64349 0.676526,-2.02045 0,-0.37696 0.132691,-1.21234 0.294868,-1.8564 0.327001,-1.29864 0.07364,-3.59585 -0.290637,-2.63518 -0.110361,0.29104 -0.346456,1.39619 -0.524656,2.4559 -0.266565,1.58516 -0.260882,2.00436 0.03207,2.36464 0.312058,0.38378 0.294214,0.41469 -0.144375,0.25002 -0.432028,-0.1622 -0.453033,-0.13076 -0.153652,0.22998 0.280898,0.33846 0.281726,0.40245 0.0043,0.33678 -0.202433,-0.0479 -0.505995,0.40572 -0.742466,1.10955 -0.220015,0.65485 -0.443355,1.24034 -0.496314,1.30109 -0.05296,0.0607 -0.721267,0.19896 -1.48513,0.30713 -1.440315,0.20396 -3.531476,0.96756 -3.295624,1.20341 0.07414,0.0741 0.763458,-0.0519 1.531829,-0.28008 1.687733,-0.50121 2.889817,-0.53627 2.88488,-0.0841 -0.0021,0.1819 -0.07875,0.6114 -0.17058,0.95445 -0.145841,0.5448 -0.283429,0.60482 -1.087456,0.47434 -1.612401,-0.26166 -3.584007,1.07036 -5.083054,3.43411 -0.818594,1.29079 -1.028684,2.2147 -0.503608,2.2147 0.168704,0 0.233879,-0.23542 0.151926,-0.5488 -0.08468,-0.32382 0.03825,-0.73205 0.299871,-0.99581 0.243864,-0.24586 0.589661,-0.77281 0.768443,-1.17099 0.178782,-0.39819 0.487751,-0.72398 0.686596,-0.72398 0.198848,0 0.577041,-0.23812 0.840431,-0.52917 0.26339,-0.29104 0.691533,-0.52916 0.951433,-0.52916 0.259901,0 0.539267,-0.10796 0.620817,-0.23991 0.08155,-0.13195 -0.119782,-0.1878 -0.447406,-0.12412 -0.460407,0.0895 -0.414914,0.0198 0.200327,-0.307 0.666034,-0.35376 0.925235,-0.36898 1.587501,-0.0932 l 0.791495,0.32956 -0.661458,0.10746 c -0.363802,0.0591 -0.774568,0.21644 -0.912812,0.34964 -0.138245,0.1332 -0.448281,0.24218 -0.68897,0.24218 -0.240687,0 -0.745518,0.28536 -1.121842,0.63412 -0.376328,0.34877 -0.840198,0.68966 -1.030825,0.75753 -0.190627,0.0679 -0.279609,0.19677 -0.197739,0.28644 0.08187,0.0897 0.558123,-0.18686 1.058333,-0.61449 0.500214,-0.42763 1.110811,-0.78235 1.356885,-0.78826 0.246073,-0.006 0.520991,-0.12982 0.610928,-0.27534 0.08994,-0.14552 0.424387,-0.26342 0.74322,-0.262 0.386014,0.002 0.135843,0.20928 -0.748763,0.62121 -2.132426,0.99301 -4.069705,3.36824 -4.089689,5.01422 -0.0032,0.26325 -0.125196,0.40485 -0.271108,0.31467 -0.177345,-0.1096 -0.177345,-0.32831 0,-0.65968 0.145912,-0.27264 0.264565,-0.7119 0.263668,-0.97613 -0.0011,-0.34157 -0.115861,-0.26139 -0.396875,0.27743 -0.217384,0.41682 -0.395245,0.94559 -0.395245,1.17505 0,0.33611 -0.0755,0.31738 -0.388462,-0.0964 -0.362129,-0.47878 -0.38903,-0.44005 -0.396875,0.57141 -0.0092,1.18064 0.47974,2.88174 0.749782,2.60886 0.09232,-0.0933 0.302403,0.28758 0.466863,0.84639 0.164459,0.5588 0.423653,0.98914 0.575987,0.9563 0.152334,-0.0328 0.433795,0.29458 0.625467,0.7276 0.191672,0.43302 0.491276,0.78731 0.665782,0.78731 0.174506,0 0.485931,0.24078 0.692057,0.53507 0.206126,0.29428 0.957019,0.82379 1.668651,1.17669 1.749812,0.86772 3.743468,0.87889 5.564132,0.0312 z m -3.873196,-0.48615 c -1.03e-4,-0.10914 0.297469,-0.19844 0.661271,-0.19844 0.363802,0 0.661458,0.10647 0.661458,0.2366 0,0.13012 -0.297572,0.21942 -0.66127,0.19843 -0.363702,-0.021 -0.661358,-0.12745 -0.661459,-0.23659 z m 1.851896,-0.10283 c 0,-0.20781 0.279831,-0.36019 0.661458,-0.36019 0.363802,0 0.661458,0.10518 0.661458,0.23374 0,0.12856 -0.297656,0.29064 -0.661458,0.36018 -0.44355,0.0848 -0.661458,0.008 -0.661458,-0.23373 z m -3.571875,-0.36019 c -0.208193,-0.33686 0.40478,-0.33686 0.926041,0 0.322654,0.20852 0.288462,0.25724 -0.182821,0.26053 -0.318834,0.002 -0.653283,-0.11501 -0.74322,-0.26053 z m 5.531442,-0.0401 c -0.246708,-0.39918 0.703779,-1.10651 1.03791,-0.77238 0.33709,0.33709 0.021,1.0771 -0.460017,1.0771 -0.21426,0 -0.474311,-0.13712 -0.577893,-0.30472 z m 0.95085,-0.22444 c 0,-0.14552 -0.0525,-0.26459 -0.11668,-0.26459 -0.0642,0 -0.190259,0.11907 -0.280196,0.26459 -0.08994,0.14552 -0.03743,0.26458 0.116676,0.26458 0.15411,0 0.2802,-0.11906 0.2802,-0.26458 z m 56.88542,0 c -0.36381,-0.11651 -0.50561,-0.22371 -0.31512,-0.23821 0.19049,-0.0145 0.26888,-0.15172 0.17419,-0.30493 -0.0947,-0.1532 -0.31007,-0.23204 -0.47863,-0.17521 -0.34157,0.11516 -0.94651,-0.55681 -0.95953,-1.06584 -0.005,-0.18094 0.53649,0.087 1.20248,0.59531 0.66599,0.50836 1.32786,0.92429 1.47082,0.92429 0.14296,0 0.18635,0.11907 0.0964,0.26459 -0.18386,0.29748 -0.26172,0.29748 -1.19062,0 z m -64.966093,-0.54677 c -0.288219,-0.46635 0.01561,-0.53173 0.559361,-0.12037 0.447641,0.33866 0.455261,0.38675 0.06245,0.39414 -0.246073,0.005 -0.525886,-0.11857 -0.621808,-0.27377 z m 8.950193,-0.30432 c -0.14752,-0.18674 -0.26461,-0.53672 -0.26019,-0.77772 0.0115,-0.62638 1.11046,-0.18455 1.11046,0.44644 0,0.59327 -0.4919,0.78492 -0.85027,0.33128 z m 0.71798,-0.50306 c 0,-0.14552 -0.11906,-0.191 -0.26458,-0.10106 -0.14552,0.0899 -0.26459,0.28258 -0.26459,0.4281 0,0.14552 0.11907,0.191 0.26459,0.10107 0.14552,-0.0899 0.26458,-0.28259 0.26458,-0.42811 z m 53.57812,0.5604 c -0.0899,-0.14552 -0.0374,-0.26459 0.11668,-0.26459 0.15411,0 0.2802,0.11907 0.2802,0.26459 0,0.14552 -0.0525,0.26458 -0.11668,0.26458 -0.0642,0 -0.19026,-0.11906 -0.2802,-0.26458 z m -64.279584,-0.88301 c -0.266117,-0.19459 -0.432284,-0.50851 -0.369255,-0.69759 0.07389,-0.22166 0.276964,-0.096 0.571672,0.3538 0.517814,0.79029 0.484825,0.84631 -0.202417,0.34379 z m 11.096874,-0.7069 c -0.0907,-0.14682 -0.0898,-0.50392 0.002,-0.79355 0.13611,-0.42885 0.26269,-0.47546 0.6819,-0.25111 0.41346,0.22128 0.4602,0.37745 0.23751,0.79355 -0.30381,0.56767 -0.66508,0.66611 -0.92156,0.25111 z m -12.125272,-0.96777 c -0.09701,-0.097 -0.168844,-0.42444 -0.159618,-0.72761 0.01542,-0.50683 0.03718,-0.50019 0.270267,0.0825 0.259109,0.64776 0.205362,0.96111 -0.110649,0.6451 z m 12.958012,-0.95408 c -0.29722,-0.21734 -0.39871,-0.50677 -0.28322,-0.80773 0.22701,-0.59157 1.00241,-0.46542 1.12737,0.1834 0.13582,0.70529 -0.29632,1.02491 -0.84415,0.62433 z M 9.373705,85.320571 c -0.0931,-0.24262 -0.04631,-0.56408 0.103984,-0.71438 0.187952,-0.18795 0.273256,-0.0503 0.273256,0.44112 0,0.8162 -0.132159,0.91193 -0.37724,0.27326 z m 0.759868,-0.1111 c -0.09777,-0.1582 -0.04527,-0.42014 0.116675,-0.58209 0.216207,-0.2162 0.294447,-0.13977 0.294447,0.28764 0,0.63884 -0.13744,0.73728 -0.411122,0.29445 z m 65.881254,0 c -0.3452,-0.55854 0.38504,-0.82743 2.56872,-0.94585 2.30326,-0.1249 3.05846,0.0948 2.78405,0.80991 -0.13321,0.34713 -0.61487,0.42357 -2.66877,0.42357 -1.51933,0 -2.57624,-0.11326 -2.684,-0.28763 z m 4.77674,-0.24153 c 0.10487,-0.16969 -0.67243,-0.25209 -2.16719,-0.22976 -1.72665,0.0258 -2.09071,0.0854 -1.40468,0.22976 1.40991,0.29677 3.38846,0.29677 3.57187,0 z m -57.28229,-1.16232 c 0,-0.80163 0.70667,-1.11639 0.92958,-0.41405 0.19606,0.61773 -0.0288,1.0472 -0.54832,1.0472 -0.22574,0 -0.38126,-0.25826 -0.38126,-0.63315 z m -7.009897,0.10651 c -0.273852,-0.44311 0.706644,-4.79957 1.115539,-4.95648 0.775115,-0.29744 0.888571,0.34345 0.435816,2.46182 -0.537393,2.51435 -1.039836,3.32231 -1.551355,2.49466 z m 1.257556,-3.70669 0.157171,-1.19063 -0.361831,1.12868 c -0.199006,0.62077 -0.426781,1.69233 -0.506164,2.38125 l -0.144333,1.25257 0.348994,-1.19062 c 0.191944,-0.65485 0.419719,-1.72641 0.506163,-2.38125 z m 46.961201,3.77208 c -1.57877,-0.0694 -2.05052,-0.17892 -2.05052,-0.47592 0,-0.31222 0.50429,-0.38575 2.64583,-0.38575 1.45521,0 2.64583,0.0953 2.64583,0.21167 0,0.32839 -0.60327,0.85275 -0.91281,0.79342 -0.1528,-0.0293 -1.20055,-0.0938 -2.32833,-0.14342 z m 1.05833,-0.52524 c -0.5457,-0.0571 -1.43867,-0.0571 -1.98437,0 -0.54571,0.0571 -0.0992,0.10379 0.99218,0.10379 1.09141,0 1.53789,-0.0467 0.99219,-0.10379 z m 9.85573,0.45732 c 0,-0.14552 0.11203,-0.26458 0.24897,-0.26458 0.13693,0 0.32255,0.11906 0.41249,0.26458 0.0899,0.14553 -0.0221,0.26459 -0.24897,0.26459 -0.22687,0 -0.41249,-0.11906 -0.41249,-0.26459 z m -52.6123,-1.79579 c -0.28737,-0.55923 -0.11255,-1.11462 0.35083,-1.11462 0.32062,0 0.66772,0.54669 0.66772,1.05166 0,0.44981 -0.79452,0.49892 -1.01855,0.063 z m 0.58069,-0.46458 c -0.0862,-0.22455 -0.21343,-0.35154 -0.28278,-0.28218 -0.0694,0.0694 -0.0476,0.25308 0.0483,0.40828 0.26089,0.42214 0.41338,0.34013 0.23448,-0.1261 z m -10.233669,-0.56185 c -0.305731,-0.30573 -0.193754,-0.58945 0.346822,-0.87876 0.426866,-0.22845 0.494737,-0.2058 0.36857,0.12299 -0.08505,0.22165 -0.290735,0.40482 -0.457068,0.40705 -0.166331,0.002 -0.123828,0.11946 0.09445,0.26053 0.218283,0.14106 0.267892,0.2583 0.110244,0.26053 -0.157649,0.002 -0.366008,-0.0753 -0.463021,-0.17234 z m 66.763199,-0.35278 c 0,-0.63083 0.40629,-0.70183 0.63315,-0.11065 0.22692,0.59136 0.20903,0.63982 -0.23628,0.63982 -0.22048,0 -0.39687,-0.23518 -0.39687,-0.52917 z m -67.468755,-0.38495 c 0.733258,-0.80221 2.081764,-1.59023 2.317645,-1.35435 0.08349,0.0835 0.02201,0.1518 -0.136615,0.1518 -0.158628,0 -0.863081,0.4334 -1.56545,0.96311 -1.031844,0.77818 -1.150036,0.82415 -0.61558,0.23944 z m 19.517765,0.45779 c 0.47554,-0.0589 1.18992,-0.0577 1.5875,0.003 0.39757,0.0604 0.008,0.10856 -0.86464,0.10707 -0.87312,-0.002 -1.19841,-0.0509 -0.72286,-0.10976 z m -10.25735,-0.46971 c -0.26976,-0.32504 -0.25168,-0.39688 0.0999,-0.39688 0.2361,0 0.42927,0.1786 0.42927,0.39688 0,0.21828 -0.045,0.39687 -0.0999,0.39687 -0.0549,0 -0.24811,-0.17859 -0.42927,-0.39687 z m 0.566,-0.43622 c -0.31941,-0.51146 -0.30629,-0.54831 0.13496,-0.37898 0.3405,0.13066 0.24811,-0.0721 -0.30453,-0.66821 l -0.7933,-0.85577 0.85989,0.59229 c 0.90556,0.62375 0.93092,0.67985 0.63975,1.41518 -0.16647,0.4204 -0.21484,0.41098 -0.53677,-0.10451 z m 11.13562,0.34658 c -0.18531,-0.11761 -0.3903,-0.50274 -0.45553,-0.85585 l -0.1186,-0.64201 0.51579,0.66146 c 0.6991,0.89654 0.7244,1.25911 0.0583,0.8364 z m -12.40717,-1.48622 c 0,-0.21188 0.10116,-0.32272 0.2248,-0.2463 0.12364,0.0764 0.1563,0.24977 0.0726,0.38523 -0.21395,0.34618 -0.29738,0.3072 -0.29738,-0.13893 z m 6.83583,-5.69609 c -0.41417,-0.5602 -0.46322,-0.73871 -0.17229,-0.62707 0.41916,0.16084 1.04669,1.11483 0.85768,1.30384 -0.0585,0.0585 -0.36693,-0.24604 -0.68539,-0.67677 z m -3.06867,-0.94903 c -0.50015,-0.50015 -0.53766,-0.90404 -0.085,-0.91556 0.20878,-0.005 0.16703,-0.13287 -0.11323,-0.34596 -0.54158,-0.41176 -0.2265,-1.05692 0.39896,-0.8169 0.25708,0.0986 0.44187,0.0405 0.44187,-0.13895 0,-0.16968 0.11788,-0.23565 0.26195,-0.14661 0.34509,0.21327 -0.30068,0.92409 -0.65883,0.72518 -0.14718,-0.0817 -0.16674,-0.0401 -0.0441,0.0939 0.12127,0.13247 0.34641,0.24086 0.50033,0.24086 0.43092,0 0.83815,0.80318 0.65251,1.28695 -0.21015,0.54764 -0.81622,0.55527 -1.35443,0.0171 z m -5.034682,-0.3597 c -0.08373,-0.13546 -0.01283,-0.33245 0.157557,-0.43775 0.184637,-0.11411 0.239157,-0.0772 0.134958,0.0914 -0.09615,0.15558 -0.02524,0.34317 0.157557,0.41687 0.237898,0.0959 0.242806,0.13994 0.01725,0.15489 -0.173313,0.0115 -0.383614,-0.0899 -0.467336,-0.22542 z m 3.174002,-2.10115 c 0.16733,-0.16733 -0.42029,-0.82755 -0.73655,-0.82755 -0.14553,0 -0.10118,0.20836 0.0985,0.46303 0.19972,0.25466 -0.12822,0.0463 -0.72876,-0.46303 -0.99505,-0.84391 -1.83192,-2.14527 -1.06625,-1.65806 0.16833,0.10711 0.37324,0.19658 0.45536,0.19881 0.0821,0.002 0.77613,0.54408 1.54224,1.20412 1.07419,0.92547 1.26994,1.20008 0.85547,1.20008 -0.29559,0 -0.48462,-0.0528 -0.42005,-0.1174 z m -1.38701,-1.46309 c -0.26146,-0.34955 -0.52425,-0.5884 -0.584,-0.53079 -0.10885,0.10498 0.76085,1.16633 0.95573,1.16633 0.057,0 -0.11028,-0.28599 -0.37173,-0.63554 z m 1.78978,-0.31985 c -0.76283,-0.95193 -1.31448,-1.80327 -1.22589,-1.89186 0.21148,-0.21147 2.02074,1.56344 2.60925,2.55972 0.87455,1.48049 -2e-4,1.05818 -1.38336,-0.66786 z m -2.37656,-3.0795 c -0.0153,-0.91883 0.0801,-1.25677 0.35466,-1.25677 0.3036,0 0.32595,0.1901 0.1167,0.99219 -0.41051,1.5735 -0.44924,1.59524 -0.47136,0.26458 z m 64.27286,25.71487 c 0,-0.144 0.30976,-0.37959 0.68836,-0.52354 0.37859,-0.14394 0.6372,-0.40888 0.57468,-0.58876 -0.12317,-0.35439 0.71889,-1.29964 0.951,-1.06753 0.0778,0.0778 0.22687,-0.19883 0.33125,-0.61474 0.10439,-0.41591 0.35151,-0.91792 0.54916,-1.11557 0.24001,-0.24 0.30648,-0.68023 0.20016,-1.32553 -0.11891,-0.72163 -0.0883,-0.86573 0.12113,-0.56931 0.22171,0.31389 0.28117,0.2188 0.28438,-0.45471 0.003,-0.57359 -0.10392,-0.81024 -0.32668,-0.72491 -0.2053,0.0786 -0.34516,-0.12453 -0.36878,-0.53572 -0.0209,-0.36432 0.0684,-0.59664 0.19844,-0.51625 0.35083,0.21682 0.28834,-0.27393 -0.18574,-1.45877 -0.23222,-0.58038 -0.54476,-1.02927 -0.69453,-0.99754 -0.14977,0.0317 -0.3324,-0.10771 -0.40585,-0.30986 -0.09,-0.24761 -0.0144,-0.30415 0.23151,-0.17327 0.20078,0.10685 -0.19275,-0.35206 -0.87451,-1.01981 -0.87902,-0.86094 -1.37264,-1.16302 -1.69705,-1.03853 -0.29784,0.11429 -0.39467,0.0739 -0.27747,-0.11571 0.25547,-0.41337 -0.27137,-0.66707 -0.78655,-0.37876 -0.35736,0.19999 -0.36928,0.28198 -0.0682,0.46968 0.20059,0.12507 0.60029,0.26402 0.88821,0.30877 0.64748,0.10064 1.09496,0.52033 0.83353,0.78176 -0.10735,0.10735 -0.278,0.0789 -0.37923,-0.0632 -0.21651,-0.30389 -1.90651,-0.92438 -2.4518,-0.90019 -0.20795,0.009 -0.1102,0.12445 0.21723,0.25605 0.63712,0.2561 0.81188,0.78024 0.26458,0.79355 -0.1819,0.004 -0.11344,0.1344 0.15214,0.28884 0.26557,0.15443 0.55331,0.21035 0.63941,0.12424 0.0861,-0.0861 -0.0121,-0.15836 -0.21829,-0.16059 -0.30862,-0.003 -0.30473,-0.0493 0.022,-0.26053 0.62362,-0.40302 0.8595,-0.32318 1.91823,0.64923 1.13038,1.03821 1.37885,1.90055 0.26459,0.91824 l -0.7276,-0.64143 0.57889,0.66146 c 1.49783,1.71147 2.00759,4.14814 1.28912,6.16215 -0.19675,0.55152 -0.29351,1.24832 -0.21503,1.54843 0.0824,0.31499 -0.0131,0.64436 -0.22598,0.77912 -0.65663,0.41579 -0.86016,0.25547 -0.3672,-0.28924 0.2642,-0.29193 0.41784,-0.59331 0.34143,-0.66972 -0.0764,-0.0764 -0.33276,0.15691 -0.56968,0.51849 -0.64263,0.98077 -2.54838,1.98353 -4.30339,2.26434 l -1.55524,0.24884 1.56076,-0.10678 c 1.14974,-0.0787 1.89878,-0.3169 2.84428,-0.90466 0.70592,-0.43882 1.2835,-0.67818 1.2835,-0.5319 0,0.14627 -0.35643,0.46878 -0.79208,0.71667 -0.91455,0.52041 -1.17231,1.59708 -0.26625,1.11217 0.29104,-0.15576 0.52916,-0.40102 0.52916,-0.54502 z m 1.98567,-3.42163 c -0.0892,-0.14437 -0.0397,-0.47179 0.11002,-0.7276 0.22977,-0.39255 0.26428,-0.3516 0.2212,0.26248 -0.0562,0.80095 -0.0923,0.85167 -0.33122,0.46512 z m 0.43736,-2.38335 c 0,-0.3638 0.0601,-0.51263 0.13345,-0.33072 0.0734,0.1819 0.0734,0.47955 0,0.66145 -0.0734,0.1819 -0.13345,0.0331 -0.13345,-0.33073 z m -0.14761,-1.48166 c -0.0942,-0.24539 -0.11168,-0.50569 -0.0389,-0.57845 0.0728,-0.0728 0.20934,0.0685 0.3035,0.31386 0.0942,0.24539 0.11168,0.50569 0.0389,0.57845 -0.0728,0.0728 -0.20934,-0.0685 -0.3035,-0.31386 z m -0.65478,-1.64985 c -0.38526,-0.69901 -0.31442,-0.91001 0.19899,-0.59271 0.19201,0.11867 0.30242,0.43962 0.24535,0.71322 -0.0941,0.45106 -0.13552,0.43982 -0.44434,-0.12051 z m 0.76061,-0.27041 c 0,-0.2875 -0.14883,-0.58278 -0.33073,-0.65618 -0.24928,-0.10059 -0.25157,-0.1386 -0.009,-0.15434 0.44273,-0.0288 0.95203,0.95502 0.60534,1.16929 -0.14591,0.0902 -0.2653,-0.0713 -0.2653,-0.35877 z m -1.56888,-2.13722 c -0.20805,-0.13166 -0.39636,-0.48496 -0.41847,-0.78512 -0.0318,-0.43093 0.0353,-0.48311 0.31851,-0.24804 0.19729,0.16374 0.29734,0.35909 0.22232,0.4341 -0.075,0.075 -0.004,0.29618 0.1583,0.49146 0.34156,0.41157 0.2532,0.44544 -0.28066,0.1076 z m -26.56079,11.04578 c -0.0845,-0.21106 -0.14716,-0.14837 -0.15986,0.15986 -0.0115,0.27891 0.0511,0.43518 0.13897,0.34726 0.0879,-0.0879 0.0973,-0.31612 0.0209,-0.50712 z m 23.71612,-2.26661 c 1.29166,-0.75436 2.0323,-2.04256 2.0323,-3.53476 0,-1.14724 -0.66284,-3.14801 -1.04119,-3.14279 -0.33019,0.005 -0.70504,1.26142 -0.51833,1.73794 0.10967,0.27993 0.22159,0.92568 0.2487,1.435 0.0271,0.50932 0.10374,0.71768 0.17029,0.46302 0.0666,-0.25466 0.29086,-0.46302 0.49847,-0.46302 0.43571,0 0.5043,0.41956 0.10858,0.66413 -0.14789,0.0914 -0.206,0.26796 -0.12913,0.39234 0.0769,0.12439 -0.41318,0.50232 -1.08902,0.83985 -0.67584,0.33753 -1.34732,0.87383 -1.49219,1.19178 -0.33332,0.73155 -1.24711,0.70603 -1.27269,-0.0356 -0.0185,-0.53498 -0.0203,-0.53505 -0.24599,-0.01 -0.22457,0.52259 -0.22762,0.52239 -0.24598,-0.0165 -0.0164,-0.4824 -0.18639,-0.5457 -1.46503,-0.5457 -1.64521,0 -1.61567,0.30237 0.11309,1.1577 1.24757,0.61725 3.1427,0.55877 4.32812,-0.13356 z m -23.71448,-1.05721 c -0.0666,-0.25466 -0.121,-0.0463 -0.121,0.46302 0,0.50932 0.0545,0.71768 0.121,0.46302 0.0666,-0.25466 0.0666,-0.67138 0,-0.92604 z m 21.95877,0.14882 c -0.0845,-0.21106 -0.14715,-0.14837 -0.15985,0.15986 -0.0115,0.27891 0.0511,0.43518 0.13897,0.34726 0.0879,-0.0879 0.0973,-0.31612 0.0209,-0.50712 z m -21.66104,-1.63035 c 0.36861,0.11769 0.3793,0.0952 0.0617,-0.1297 -0.43708,-0.3095 -0.81643,-0.16272 -0.7855,0.30393 0.0161,0.24293 0.0503,0.24276 0.14939,-8e-4 0.0707,-0.17373 0.32916,-0.25179 0.57442,-0.17348 z m 1.76884,-3.6117 c -0.18607,-0.30108 0.21099,-0.36228 0.49671,-0.0766 0.10341,0.10341 1.58177,0.19947 3.28524,0.21347 1.70347,0.014 2.74003,-0.0475 2.30347,-0.13659 -0.43656,-0.0891 -0.76985,-0.28665 -0.74063,-0.43896 0.10557,-0.55042 -17.6197,-0.7361 -18.1655,-0.1903 -0.0704,0.0704 2.40504,0.10833 5.50098,0.0843 3.09593,-0.024 5.70181,0.0292 5.79084,0.11818 0.089,0.089 -0.007,0.17877 -0.21295,0.19942 -0.20615,0.0206 0.10143,0.12282 0.68351,0.22704 0.58208,0.10422 1.09513,0.20639 1.1401,0.22703 0.045,0.0207 0.008,-0.0815 -0.0818,-0.22703 z m 16.0073,-1.34963 c 0,-0.60351 -0.34268,-0.64909 -0.79375,-0.10558 -0.18116,0.21828 -0.46363,0.40066 -0.62771,0.40529 -0.16409,0.005 -0.53588,0.18792 -0.82621,0.40732 -0.43132,0.32594 -0.46019,0.44075 -0.15781,0.62762 0.54037,0.33397 2.40548,-0.70087 2.40548,-1.33465 z m -40.14549,1.17608 c -0.17913,-0.0725 -0.53632,-0.0769 -0.79375,-0.01 -0.25743,0.0671 -0.11087,0.12638 0.32569,0.13177 0.43657,0.005 0.64719,-0.0495 0.46806,-0.12197 z m 10.96966,0.0137 c -0.0879,-0.0879 -0.31612,-0.0973 -0.50712,-0.0209 -0.21106,0.0845 -0.14837,0.14715 0.15986,0.15985 0.27891,0.0115 0.43518,-0.0511 0.34726,-0.13897 z m 2.38125,0 c -0.0879,-0.0879 -0.31612,-0.0973 -0.50712,-0.0209 -0.21106,0.0845 -0.14837,0.14715 0.15986,0.15985 0.27891,0.0115 0.43518,-0.0511 0.34726,-0.13897 z m -39.845315,-0.67439 c 0.478266,-0.55144 0.58755,-0.75326 0.407885,-0.75326 -0.04739,0 -0.365803,0.29765 -0.707578,0.66146 -0.341776,0.3638 -0.525323,0.66145 -0.407885,0.66145 0.117438,0 0.435848,-0.25634 0.707578,-0.56965 z m 18.485725,0.30507 c -0.21828,-0.14106 -0.57547,-0.24994 -0.79375,-0.24193 -0.26169,0.01 -0.21663,0.092 0.13229,0.24193 0.72736,0.31256 1.14511,0.31256 0.66146,0 z m 42.95904,-0.13006 c -0.0833,-0.21705 0.11033,-0.84213 0.43029,-1.38906 l 0.58173,-0.99442 -0.75272,0.6974 c -0.78992,0.73187 -2.14508,1.49299 -3.26455,1.83351 -0.45437,0.13822 -0.0618,0.20889 1.24676,0.22447 1.59,0.0189 1.88456,-0.0434 1.75849,-0.3719 z m 18.21203,-1.04255 c -0.0583,-0.49941 -0.30229,-1.08582 -0.54219,-1.30313 -2.78261,-2.52065 -3.49295,-3.1039 -4.39081,-3.60521 -1.23077,-0.6872 -4.02187,-1.32467 -5.70265,-1.30245 l -1.19063,0.0157 1.05833,0.33189 c 0.84199,0.26404 0.95017,0.36178 0.52917,0.47814 -0.29104,0.0804 0.13383,0.16006 0.94417,0.17694 2.59271,0.054 4.11781,0.68472 5.85402,2.42093 0.8522,0.8522 1.46854,1.41853 1.36965,1.25852 -0.11178,-0.18085 -0.0574,-0.21528 0.14369,-0.091 0.17793,0.10997 0.26014,0.36506 0.1827,0.56688 -0.0774,0.20181 -0.0111,0.3386 0.14732,0.30396 0.15848,-0.0346 0.34823,0.10243 0.42168,0.30459 0.0896,0.24654 0.0217,0.29841 -0.20624,0.15756 -0.22938,-0.14177 -0.27491,-0.10503 -0.14012,0.11306 0.10981,0.17769 0.25719,0.26554 0.32751,0.19522 0.0703,-0.0703 0.35605,0.10036 0.63496,0.37927 0.66801,0.66802 0.68298,0.65729 0.55944,-0.4009 z m -42.18722,0.45394 c -0.40018,-0.0606 -1.05502,-0.0606 -1.4552,0 -0.40019,0.0606 -0.0728,0.11022 0.7276,0.11022 0.80036,0 1.12779,-0.0496 0.7276,-0.11022 z m 2.51355,0.0143 c -0.18191,-0.0734 -0.47956,-0.0734 -0.66146,0 -0.1819,0.0734 -0.0331,0.13346 0.33073,0.13346 0.3638,0 0.51263,-0.0601 0.33073,-0.13346 z m 25.88769,-1.56618 c 0.7868,-0.53223 1.40319,-1.06526 1.36976,-1.18451 -0.0904,-0.32259 0.90902,-0.57401 1.51598,-0.38137 0.30356,0.0964 0.52917,0.0476 0.52917,-0.11446 0,-0.15533 0.36421,-0.28241 0.80937,-0.28241 0.50929,0 0.74426,0.10533 0.63376,0.28411 -0.12169,0.19691 -0.025,0.20526 0.31512,0.0272 0.26989,-0.1413 0.78836,-0.37218 1.15217,-0.51306 0.52749,-0.20428 0.36672,-0.2396 -0.79375,-0.1744 -1.22286,0.0687 -1.30735,0.0474 -0.52917,-0.1331 0.82533,-0.19149 0.75339,-0.21662 -0.66146,-0.23109 -0.87312,-0.009 -1.82562,0.0917 -2.11667,0.22351 -0.38272,0.1734 -0.23628,0.20353 0.52917,0.10887 0.93633,-0.11579 0.98208,-0.0977 0.39688,0.15651 -0.36381,0.15807 -0.96886,0.22676 -1.34457,0.15264 -0.72998,-0.14401 -2.48969,0.73258 -2.24981,1.12072 0.0748,0.12101 -0.21698,0.55817 -0.64837,0.97146 -0.43138,0.41329 -0.78434,0.85526 -0.78434,0.98214 0,0.26247 -0.0417,0.28497 1.87676,-1.01278 z m -0.28926,-1.03421 c 0,-0.18104 1.62002,-0.98423 1.74106,-0.86319 0.0574,0.0574 -0.31084,0.30239 -0.81834,0.5444 -0.50749,0.242 -0.92272,0.38546 -0.92272,0.31879 z m -4.63021,1.4527 c 0.0899,-0.14552 0.0445,-0.26459 -0.10106,-0.26459 -0.14552,0 -0.33817,0.11907 -0.4281,0.26459 -0.0899,0.14552 -0.0445,0.26458 0.10106,0.26458 0.14552,0 0.33817,-0.11906 0.4281,-0.26458 z m 5.68855,-0.28459 c 0,-0.12538 -0.1786,-0.15944 -0.39688,-0.0757 -0.21828,0.0838 -0.39687,0.25489 -0.39687,0.38027 0,0.12539 0.17859,0.15944 0.39687,0.0757 0.21828,-0.0838 0.39688,-0.25488 0.39688,-0.38027 z m -2.11667,-0.37687 c 0.34177,-0.3638 0.56188,-0.66146 0.48912,-0.66146 -0.0728,0 -0.41193,0.29766 -0.7537,0.66146 -0.34178,0.3638 -0.56188,0.66146 -0.48912,0.66146 0.0728,0 0.41192,-0.29766 0.7537,-0.66146 z m -1.79835,-0.99219 c 1.34886,-1.66453 1.47178,-2.35345 0.15532,-0.87049 -1.32045,1.48746 -1.65433,1.99497 -1.31241,1.99497 0.13522,0 0.65591,-0.50601 1.15709,-1.12448 z m 1.26918,0.46302 c 0.34178,-0.3638 0.56188,-0.66146 0.48912,-0.66146 -0.0728,0 -0.41193,0.29766 -0.7537,0.66146 -0.34178,0.3638 -0.56188,0.66146 -0.48912,0.66146 0.0728,0 0.41193,-0.29766 0.7537,-0.66146 z m 7.14375,-0.14494 c 0,-0.1353 -0.28907,-0.22208 -0.64238,-0.19284 -0.35331,0.0292 -0.58321,0.14891 -0.51089,0.26594 0.0723,0.11702 0.24234,0.14427 0.37781,0.0605 0.13546,-0.0837 0.2463,-0.0191 0.2463,0.14359 0,0.1627 0.11906,0.22223 0.26458,0.1323 0.14552,-0.0899 0.26458,-0.27423 0.26458,-0.40953 z m -7.27604,-0.7811 c 0.26339,-0.29104 0.41936,-0.52917 0.3466,-0.52917 -0.0728,0 -0.34779,0.23813 -0.61118,0.52917 -0.26339,0.29104 -0.41936,0.52917 -0.3466,0.52917 0.0728,0 0.34779,-0.23813 0.61118,-0.52917 z m -58.941448,-0.9536 c -0.08792,-0.0879 -0.316124,-0.0973 -0.507119,-0.0209 -0.211066,0.0845 -0.148373,0.14716 0.159854,0.15985 0.278913,0.0115 0.435184,-0.051 0.347265,-0.13896 z m 64.558338,-0.79375 c -0.0879,-0.0879 -0.31613,-0.0973 -0.50712,-0.0209 -0.21107,0.0845 -0.14838,0.14716 0.15985,0.15985 0.27891,0.0115 0.43518,-0.051 0.34727,-0.13896 z m 2.11666,0 c -0.0879,-0.0879 -0.31612,-0.0973 -0.50712,-0.0209 -0.21106,0.0845 -0.14837,0.14716 0.15986,0.15985 0.27891,0.0115 0.43518,-0.051 0.34726,-0.13896 z m -4.02938,-1.16307 c -0.0899,-0.14552 -0.30533,-0.26276 -0.47864,-0.26053 -0.18934,0.002 -0.1567,0.10643 0.0818,0.26053 0.5083,0.32849 0.59989,0.32849 0.39688,0 z m -55.68165,-0.66825 c 0.42933,-0.22202 0.78061,-0.47548 0.78061,-0.56324 0,-0.16323 -1.83564,-2.26393 -1.87235,-2.14271 -0.0111,0.0368 -0.0663,0.75152 -0.12269,1.58827 -0.1114,1.65448 -0.008,1.74976 1.21443,1.11768 z m -2.658977,-7.53383 c 0,-0.14552 -0.115658,-0.26458 -0.257019,-0.26458 -0.141359,0 -0.368747,-0.38696 -0.505304,-0.8599 -0.136557,-0.47294 -0.259025,-0.65714 -0.272148,-0.40932 -0.03052,0.57623 0.521549,1.79838 0.812358,1.79838 0.122161,0 0.222113,-0.11906 0.222113,-0.26458 z m -0.353939,-1.91823 c -0.0734,-0.1819 -0.133453,-0.0331 -0.133453,0.33073 0,0.3638 0.06006,0.51263 0.133453,0.33073 0.0734,-0.1819 0.0734,-0.47956 0,-0.66146 z m 3.613566,-9.45885 c 1.61353,-8.045484 1.79587,-9.042904 1.70365,-9.319534 -0.0537,-0.16111 -0.37091,1.12574 -0.70491,2.85966 -0.33401,1.733914 -0.73355,3.526334 -0.88787,3.983144 -0.27549,0.81547 -0.29017,0.82164 -0.80776,0.33943 -0.59404,-0.55343 -0.6559,0.0316 0.85127,-8.049164 3.92513,-21.04466 5.52125,-28.97188 5.83339,-28.97188 0.0976,0 -0.0944,1.51805 -0.42674,3.37344 -1.10447,6.16631 -3.6357,19.76234 -5.11058,27.45052 -0.55833,2.910424 -0.92359,5.388314 -0.81171,5.506424 0.11189,0.11812 0.40133,-0.89391 0.6432,-2.24896 0.24187,-1.355044 0.6725,-3.713864 0.95695,-5.241834 0.28445,-1.52797 1.53596,-8.255 2.78114,-14.94896 1.24517,-6.69396 2.62391,-13.93988 3.06388,-16.10205 0.43996,-2.162169 0.73522,-3.9959297 0.65612,-4.0750247 -0.0791,-0.07909 -1.21715,-0.345483 -2.52902,-0.591972 l -2.38522,-0.448162 v 0.598944 c 0,0.329419 -0.0684,0.777083 -0.15191,0.994809 -0.10382,0.2705397 0.23315,0.6215247 1.06438,1.1086537 1.35399,0.793494 1.73326,1.323815 1.73357,2.42397 2.6e-4,1.238162 -1.1193,6.456502 -1.45796,6.795162 -0.17389,0.17389 -0.28682,0.7292 -0.25096,1.23404 0.0359,0.50483 -0.2866,2.76335 -0.71656,5.01892 -0.42997,2.25557 -1.7178,9.00513 -2.86185,14.99901 -1.14405,5.99388 -2.01808,11.135104 -1.94229,11.424924 0.0784,0.2998 0.2889,0.46897 0.48832,0.39245 0.87955,-0.33752 1.08133,1.43774 0.48559,4.27216 -0.0918,0.43657 -0.10216,0.73422 -0.0231,0.66146 0.0791,-0.0728 0.4422,-1.62057 0.807,-3.43958 z m 6.04701,-40.957416 c -0.0254,-0.48017 -0.23359,-1.235375 -0.46261,-1.678234 -0.51784,-1.0014 -0.30964,-1.302434 0.27923,-0.403716 0.28907,0.441186 0.40006,1.046011 0.33195,1.808894 -0.083,0.929238 -0.11109,0.980908 -0.14857,0.273056 z m -9.460043,41.089706 0.0669,-1.32292 -0.313335,1.05834 c -0.172334,0.58208 -0.389568,1.59411 -0.482738,2.24895 l -0.169405,1.19063 0.415841,-0.92604 c 0.228711,-0.50933 0.445942,-1.52136 0.482737,-2.24896 z m 1.381623,1.91823 c 0.11656,-0.47294 0.22621,-0.97896 0.24366,-1.12448 0.0174,-0.14552 0.12216,-0.58849 0.23268,-0.98437 0.14521,-0.52009 0.0798,-0.84092 -0.23569,-1.15644 -0.40582,-0.40582 -0.42437,-0.38769 -0.26262,0.25676 0.11684,0.46553 0.0675,0.69342 -0.15009,0.69342 -0.19386,0 -0.26851,0.21267 -0.18574,0.52917 0.0761,0.29104 0.0305,0.52917 -0.10144,0.52917 -0.1319,0 -0.23981,0.2311 -0.23981,0.51355 0,0.28245 -0.11906,0.58714 -0.264584,0.67707 -0.457033,0.28246 -0.287763,0.92604 0.243564,0.92604 0.35343,0 0.57267,-0.26181 0.72007,-0.85989 z m 4.4166,-14.485944 0.15555,-1.45521 -0.3751,1.5875 c -0.41608,1.76097 -0.49193,2.69552 -0.15031,1.85209 0.11788,-0.29105 0.28432,-1.18401 0.36986,-1.98438 z m 1.36319,-6.74687 c 1.73367,-9.01176 2.80669,-14.50292 3.36061,-17.19792 0.2991,-1.45521 0.6325,-3.30068 0.74091,-4.10104 0.1084,-0.800367 0.34733,-2.123622 0.53095,-2.940568 0.18363,-0.816947 0.27979,-1.6475967 0.21369,-1.8458887 -0.0661,-0.198292 -0.50379,1.6607437 -0.97265,4.1311907 -0.46887,2.470446 -1.45141,7.646876 -2.18343,11.503176 -0.73202,3.85631 -1.67887,8.79292 -2.1041,10.97024 -0.7479,3.82949 -0.89442,4.84987 -0.66312,4.61813 0.0605,-0.0606 0.54523,-2.37243 1.07714,-5.13732 z m -0.004,-16.56956 c -0.11489,-0.52307 -0.0851,-0.76722 0.081,-0.66455 0.29447,0.18199 0.6257,-1.14351 0.38363,-1.53519 -0.20033,-0.32414 -0.80787,1.35035 -0.83412,2.29898 -0.0111,0.40019 0.1084,0.72761 0.26548,0.72761 0.18223,0 0.21988,-0.29927 0.104,-0.82685 z m 1.08399,-6.205538 c -0.0884,-0.352292 -0.26102,-0.640531 -0.38355,-0.640531 -0.12253,0 -0.0905,0.49629 0.0712,1.102867 0.16571,0.621685 0.33306,0.901152 0.38355,0.640531 0.0493,-0.254285 0.0172,-0.750575 -0.0712,-1.102867 z m -2.47352,-1.846484 c -0.32368,-0.226712 -0.72007,-0.330891 -0.88087,-0.231511 -0.37606,0.232417 0.21878,0.634006 0.94748,0.639662 0.49042,0.0038 0.4864,-0.0208 -0.0666,-0.408151 z m -2.34131,-0.701054 c -0.16834,-0.27237 -0.0121,-0.264373 0.78954,0.04042 0.55299,0.210246 0.72431,0.148515 1.07556,-0.3875657 0.60193,-0.918663 0.51768,-1.534305 -0.3098,-2.263788 l -0.72762,-0.641433 0.5876,0.670296 0.58759,0.670295 -0.51505,0.846941 c -0.44565,0.732814 -0.60053,0.8144457 -1.14931,0.605796 -0.42159,-0.160287 -0.73424,-0.141163 -0.93244,0.05703 -0.44375,0.4437467 -0.36207,0.6934377 0.21266,0.6501447 0.28096,-0.02116 0.45253,-0.132827 0.38126,-0.24814 z m -1.26591,-1.1131567 c -0.0815,-0.303441 -0.14977,-0.879133 -0.15175,-1.279315 -0.002,-0.400182 -0.10617,-0.727604 -0.23151,-0.727604 -0.12534,0 -0.16863,0.31 -0.0962,0.688889 0.10138,0.530338 -0.0441,0.831828 -0.632,1.309938 l -0.763696,0.621049 1.011646,-0.03062 c 0.89033,-0.02695 0.99388,-0.09678 0.86351,-0.582334 z m -3.523759,0.200781 c -0.17913,-0.07248 -0.536318,-0.07689 -0.79375,-0.0098 -0.257431,0.06708 -0.110868,0.126382 0.325695,0.131773 0.436562,0.0054 0.647186,-0.04949 0.468055,-0.121969 z m 5.946159,-0.63072 c 0.11495,-0.658796 -0.37495,-1.127761 -1.23133,-1.178707 -0.45132,-0.02685 -0.76133,0.01043 -0.68892,0.08284 0.0724,0.07241 0.0273,0.261674 -0.10016,0.420584 -0.1275,0.15891 -0.13521,0.543568 -0.0171,0.854795 0.18163,0.478712 0.34988,0.538219 1.09241,0.386355 0.48274,-0.09873 0.90805,-0.353372 0.94513,-0.565867 z m -0.72568,-1.841564 c 0,-0.145521 -0.0525,-0.264583 -0.11668,-0.264583 -0.0642,0 -0.19026,0.119062 -0.2802,0.264583 -0.0899,0.145521 -0.0374,0.264584 0.11668,0.264584 0.15411,0 0.2802,-0.119063 0.2802,-0.264584 z"
         id="path383" /><g
         id="g3736"><path
           style="fill:#ffffff;fill-opacity:1;stroke:none;stroke-width:0.614;stroke-linecap:round;stroke-miterlimit:8;stroke-dasharray:none;stroke-opacity:1;paint-order:markers stroke fill"
           d="m 18.917642,56.988804 0.61875,-0.950223 1.325893,-0.773438 0.86183,-0.795536 0.640848,-1.546873 c 0,0 0.0442,-1.458484 0.0221,-1.546876 -0.0221,-0.08839 -0.662946,-2.121429 -0.662946,-2.121429 l -1.325893,-1.016519 -3.09375,-0.596651 -4.132366,-0.552455 -2.09933,0.0442 -1.4142861,0.795536 -0.5524553,0.99442 -0.1988841,1.568974 0.2209824,2.82857 0.5082587,2.828571 1.0607144,1.215403 2.055134,0.419865 h 1.171205 l 0.795536,0.220982 0.287277,0.75134 0.441964,0.464063 1.127009,0.685044 0.86183,0.02209 1.281697,-0.530357 0.309375,-0.375668 z"
           id="path1824" /><path
           style="fill:#000000;stroke-width:0.224544"
           d="m 14.285461,58.16141 c -0.160442,-0.209824 -0.601206,-0.262035 -1.378524,-0.187345 -1.567555,0.150622 -2.797307,-0.423153 -3.3878392,-1.58069 -0.835265,-1.637256 -1.099205,-6.57897 -0.42903,-8.032672 0.144289,-0.312983 0.711618,-0.853291 1.2607312,-1.200685 1.114575,-0.705132 1.07222,-0.705137 6.383643,4.25e-4 4.24492,0.563883 5.293596,1.183401 5.83692,3.448231 0.50367,2.099528 -0.210254,4.194433 -1.687318,4.95118 -0.368037,0.188558 -0.951747,0.608694 -1.297133,0.933637 -0.577725,0.54353 -0.61603,0.68085 -0.478698,1.71611 l 0.149277,1.125305 -0.915761,0.467186 c -0.962064,0.4908 -1.172763,0.347405 -1.831831,0.256776 -0.659068,-0.09063 -1.632451,-1.123261 -2.224437,-1.897458 z m 3.571705,1.296845 c 0,-0.197573 -0.682631,-1.434434 -0.791672,-1.434434 -0.05858,0 -0.106506,0.332154 -0.106506,0.738122 0,0.577149 0.09794,0.7455 0.449089,0.771951 0.246999,0.0186 0.449089,-0.01543 0.449089,-0.07564 z m -1.122724,-0.311711 c 0,-0.1235 -0.04456,-0.224545 -0.09902,-0.224545 -0.05446,0 -0.161471,0.101045 -0.237798,0.224545 -0.07633,0.123499 -0.03177,0.224545 0.09902,0.224545 0.130788,0 0.237796,-0.101046 0.237796,-0.224545 z m 1.979539,-0.404084 c 0.039,-0.264649 -0.04441,-0.660915 -0.185363,-0.880592 -0.242503,-0.377952 -0.24932,-0.377291 -0.126891,0.01231 0.08538,0.271702 0.03388,0.3767 -0.151455,0.308749 -0.154458,-0.05663 -0.247152,-0.241904 -0.205985,-0.411716 0.04117,-0.169812 -0.0038,-0.23004 -0.10006,-0.133841 -0.252669,0.25267 -0.310309,0.861246 -0.06735,0.711089 0.112658,-0.06962 0.204832,0.140403 0.204832,0.466732 0,0.7106 0.52575,0.650125 0.63227,-0.07272 z m -0.850412,-1.539509 c 0.366977,-0.07339 0.667231,-0.221092 0.667231,-0.328215 0,-0.431082 1.06658,-1.399841 1.974663,-1.793558 1.258292,-0.545558 1.700216,-1.528618 1.574527,-3.502532 -0.156676,-2.460553 -1.10662,-3.205328 -4.784185,-3.750893 -4.273625,-0.633991 -5.57511,-0.663762 -6.534646,-0.149482 -1.0055472,0.53894 -1.4177532,1.185382 -1.4287352,2.240607 -0.0076,0.726625 0.01242,0.746128 0.402677,0.392954 0.4102272,-0.371251 0.9366342,-0.499372 0.9366342,-0.227966 0,0.07901 -0.176829,0.288594 -0.392954,0.465742 -0.216123,0.177148 -0.2834872,0.268516 -0.149696,0.203041 0.133791,-0.06547 0.253967,0.0028 0.267058,0.151756 0.0131,0.148942 0.09534,0.859032 0.182767,1.577978 0.149696,1.230955 0.18977,1.299443 0.687257,1.174582 0.573061,-0.143829 0.598241,-0.08083 0.387951,0.970619 -0.167175,0.835877 -0.654508,0.91197 -1.513463,0.236315 -0.6870702,-0.54045 -0.7331662,-0.346491 -0.2215452,0.932179 0.4760382,1.189735 1.6860342,1.774075 3.3437502,1.614789 0.929915,-0.08935 1.185328,-0.02886 1.541951,0.365205 0.235082,0.259762 0.588591,0.475368 0.785574,0.479124 0.282641,0.0053 0.265567,0.06053 -0.08098,0.261544 -0.432322,0.250767 -0.432414,0.257072 -0.0059,0.406669 0.333136,0.116858 0.578652,-0.04886 1.063031,-0.717529 0.402666,-0.555862 0.870516,-0.917613 1.297081,-1.002926 z m -7.528651,-8.16092 c -0.191592,-0.370499 -0.297828,-0.673634 -0.236077,-0.673634 0.06175,0 0.269029,0.303135 0.460622,0.673634 0.191592,0.370499 0.297827,0.673634 0.236077,0.673634 -0.06175,0 -0.26903,-0.303135 -0.460622,-0.673634 z m 0.785907,5.501346 c 0,-0.18712 -0.199596,-0.336817 -0.44909,-0.336817 -0.356461,0 -0.449599,-0.150521 -0.45156,-0.72977 -0.0039,-1.144008 -0.2603512,-2.413856 -0.4875372,-2.413856 -0.113688,0 -0.183473,0.581009 -0.15508,1.291132 0.04276,1.069539 0.157393,1.397111 0.6678992,1.90863 0.701718,0.703108 0.875368,0.758788 0.875368,0.280681 z m -1.8661192,-2.75067 c -0.05648,-0.216125 -0.102689,-0.03929 -0.102689,0.392953 0,0.432249 0.04621,0.609077 0.102689,0.392954 0.05648,-0.216125 0.05648,-0.569783 0,-0.785907 z"
           id="path1768"
           sodipodi:nodetypes="sssssssssscszssssssssssssssssscssssssssssssssssssssssscsssssssssssscssssssss" /></g></g><g
       id="g7197"><path
         id="path6816"
         style="fill:#c00000;stroke-width:0.88194444;stroke-linecap:round;stroke-miterlimit:8;paint-order:markers stroke fill;stroke:#ffffff;stroke-opacity:1;stroke-dasharray:none"
         inkscape:transform-center-x="0.27855768"
         inkscape:transform-center-y="-0.27855879"
         d="m 20.413895,90.396133 c -0.01578,0.01578 -3.780387,-2.635683 -3.802499,-2.632181 -0.02211,0.0036 -1.893524,2.277138 -1.913471,2.266974 -0.01996,-0.01018 0.3484,-3.656771 0.338236,-3.676719 -0.01018,-0.01996 -4.39219,-0.912201 -4.388687,-0.934314 0.0036,-0.02211 3.806129,-1.25238 3.821959,-1.26821 0.01578,-0.01578 0.94611,-5.318402 0.968223,-5.321904 0.02211,-0.0036 2.039325,4.753508 2.059272,4.763673 0.01996,0.01018 2.616594,1.291753 2.626757,1.3117 0.01018,0.01996 -1.813487,1.441376 -1.81699,1.463488 -0.0036,0.02211 2.123032,4.011662 2.1072,4.027493 z"
         sodipodi:nodetypes="scsscscsscs" /><path
         id="path6816-8"
         style="fill:#c00000;stroke-width:0.88194444;stroke-linecap:round;stroke-miterlimit:8;paint-order:markers stroke fill;stroke:#ffffff;stroke-opacity:1;stroke-dasharray:none"
         inkscape:transform-center-x="-0.14943278"
         inkscape:transform-center-y="0.30150503"
         d="m 16.29561,77.74222 c -0.01139,-0.0066 0.923703,-2.553906 0.918337,-2.565958 -0.0054,-0.01204 -1.585017,-0.730528 -1.582274,-0.743432 0.0028,-0.01291 2.134674,-0.359427 2.144479,-0.368255 0.0098,-0.0088 -0.150665,-2.639288 -0.137544,-2.640667 0.01313,-0.0013 1.293416,1.975535 1.304841,1.982132 0.01139,0.0066 3.171685,-0.272632 3.177052,-0.26058 0.0054,0.01204 -2.394782,1.885865 -2.397525,1.898769 -0.0028,0.01291 -0.336208,1.686461 -0.346013,1.695289 -0.0098,0.0088 -1.097071,-0.812443 -1.110192,-0.811064 -0.01313,0.0013 -1.959735,1.820363 -1.971161,1.813766 z"
         sodipodi:nodetypes="scsscscsscs" /><path
         id="path6816-4"
         style="fill:#c00000;stroke-width:0.88194444;stroke-linecap:round;stroke-miterlimit:8;paint-order:markers stroke fill;stroke:#ffffff;stroke-opacity:1;stroke-dasharray:none"
         inkscape:transform-center-x="1.7963457"
         inkscape:transform-center-y="4.2762681"
         d="m 17.329108,66.812535 c 0.0034,0.0127 2.705954,-0.23123 2.716208,-0.222927 0.01023,0.0083 0.295402,1.720084 0.308577,1.720774 0.01319,6.84e-4 0.899674,-1.96891 0.910739,-1.976096 0.01108,-0.0072 2.510362,0.828629 2.51509,0.816311 0.0047,-0.01233 -1.573461,-1.760649 -1.576875,-1.773392 -0.0034,-0.0127 1.084235,-2.993051 1.073982,-3.001354 -0.01024,-0.0083 -2.44142,1.825084 -2.454596,1.824394 -0.01318,-6.84e-4 -1.716013,-0.111736 -1.727077,-0.104551 -0.01108,0.0072 0.500816,1.269966 0.496088,1.282283 -0.0047,0.01233 -2.265552,1.421813 -2.262136,1.434558 z"
         sodipodi:nodetypes="scsscscsscs" /><path
         id="path6816-6"
         style="fill:#c00000;stroke-width:0.88194444;stroke-linecap:round;stroke-miterlimit:8;paint-order:markers stroke fill;stroke:#ffffff;stroke-opacity:1;stroke-dasharray:none"
         inkscape:transform-center-x="-0.023782653"
         inkscape:transform-center-y="1.0504684"
         d="m 10.696769,56.888781 c -0.01787,-0.0048 0.325329,-3.807164 0.313647,-3.82159 -0.01168,-0.01441 -2.4200844,-0.415619 -2.4210552,-0.434156 -9.622e-4,-0.01856 2.7701742,-1.265804 2.7802842,-1.281371 0.01013,-0.01559 -1.165846,-3.531973 -1.148516,-3.538625 0.01735,-0.0066 2.47716,2.213794 2.495089,2.218596 0.01787,0.0048 4.211095,-1.525473 4.222777,-1.511046 0.01168,0.01439 -2.567815,3.434975 -2.566844,3.453511 9.61e-4,0.01854 0.157208,2.414358 0.147097,2.429925 -0.01013,0.01559 -1.786787,-0.704627 -1.804117,-0.697975 -0.01735,0.0066 -2.000432,3.187536 -2.018362,3.182731 z"
         sodipodi:nodetypes="scsscscsscs" /><path
         id="path6816-3"
         style="fill:#c00000;stroke-width:0.88194444;stroke-linecap:round;stroke-miterlimit:8;paint-order:markers stroke fill;stroke:#ffffff;stroke-opacity:1;stroke-dasharray:none"
         inkscape:transform-center-x="-0.6594806"
         inkscape:transform-center-y="0.22330166"
         d="m 23.776435,59.724171 c -0.0044,0.01639 -3.492534,-0.298445 -3.505767,-0.287728 -0.0132,0.01071 -0.381272,2.220085 -0.398277,2.220975 -0.01701,8.83e-4 -1.161194,-2.541241 -1.175476,-2.550515 -0.0143,-0.0093 -3.240084,1.069498 -3.246186,1.053599 -0.0061,-0.01591 2.03084,-2.272441 2.035248,-2.28889 0.0044,-0.01639 -1.399405,-3.863082 -1.386172,-3.873799 0.0132,-0.01071 3.151102,2.355607 3.168107,2.354717 0.01702,-8.83e-4 2.214831,-0.144216 2.229111,-0.134943 0.0143,0.0093 -0.646395,1.639124 -0.640293,1.655023 0.0061,0.01591 2.924114,1.835111 2.919705,1.851561 z"
         sodipodi:nodetypes="scsscscsscs" /><path
         id="path6816-64"
         style="fill:#c00000;stroke-width:0.88194444;stroke-linecap:round;stroke-miterlimit:8;paint-order:markers stroke fill;stroke:#ffffff;stroke-opacity:1;stroke-dasharray:none"
         inkscape:transform-center-x="-0.044806775"
         inkscape:transform-center-y="0.23194933"
         d="m 27.123054,77.999941 c -0.0127,-0.0034 0.226963,-2.706316 0.218643,-2.716557 -0.0083,-0.01024 -1.720547,-0.292689 -1.721257,-0.305863 -6.89e-4,-0.01319 1.967489,-0.902778 1.974658,-0.913854 0.0072,-0.01107 -0.832586,-2.509051 -0.820276,-2.513799 0.01234,-0.0047 1.763127,1.570683 1.775877,1.574077 0.0127,0.0034 2.991337,-1.088953 2.999655,-1.078712 0.0083,0.01024 -1.821231,2.444294 -1.820521,2.457468 6.89e-4,0.01319 0.114442,1.715835 0.107273,1.72691 -0.0072,0.01107 -1.270753,-0.498813 -1.283063,-0.494066 -0.01233,0.0047 -1.418242,2.26779 -1.430989,2.264396 z"
         sodipodi:nodetypes="scsscscsscs" /><path
         id="path6816-2"
         style="fill:#c00000;stroke-width:0.88194444;stroke-linecap:round;stroke-miterlimit:8;paint-order:markers stroke fill;stroke:#ffffff;stroke-opacity:1;stroke-dasharray:none"
         inkscape:transform-center-x="-1.2674997"
         inkscape:transform-center-y="0.028696886"
         d="m 39.033499,80.800815 c -0.0058,-0.02156 -2.468633,-0.545002 -2.486041,-0.559098 -0.01737,-0.01409 -0.501487,-2.920087 -0.523853,-2.921258 -0.02239,-0.0012 -1.499232,2.760924 -1.499232,2.760924 l -3.129039,-0.104489 c 0,0 1.483611,2.301417 1.489409,2.32305 0.0058,0.02156 -1.840643,5.081129 -1.823237,5.095225 0.01738,0.01409 4.144657,-3.09834 4.167025,-3.097168 0.02237,0.0012 3.97573,3.877375 3.994513,3.865178 0.01881,-0.01222 -1.912761,-5.843636 -1.904734,-5.864546 0.008,-0.02093 1.720988,-1.476183 1.715189,-1.497818 z"
         sodipodi:nodetypes="scsccscsscs" /></g></g></svg>
